<?xml version="1.0" encoding="UTF-8"?>
<svg id="Layer_2" data-name="Layer 2" xmlns="http://www.w3.org/2000/svg" viewBox="0 0 402 323.69">
  <defs>
    <style>
      .cls-1 {
        fill: #ede600;
      }

      .cls-1, .cls-2 {
        stroke-width: 0px;
      }

      .cls-3 {
        font-family: Gabriella-Heavy, Gabriella;
        font-size: 19.18px;
        font-weight: 800;
      }
    </style>
  </defs>
  <g id="Layer_1-2" data-name="Layer 1">
    <rect class="cls-1" width="402" height="323.69"/>
    <text class="cls-3" transform="translate(81.39 266) scale(.83 1)"><tspan x="0" y="0">MAMMOTH TIGERS</tspan></text>
    <g>
      <path class="cls-2" d="m142.35,151.55l-18.23,4.86s2.43,4.86,2.43,6.08l-3.65-1.22-6.08-12.15-10.94-7.29,29.17-26.74,8.51-2.43-6.08-2.43,4.86-17.02,99.67-29.17-2.43,18.23-10.94,13.37,15.8-12.15,44.97,20.66-19.45,9.72-52.26-2.43,53.48,7.29,30.39-15.8-57.13-24.31,3.65-20.66-109.39,32.82-4.86,19.45-35.25,32.82,15.8,8.51,4.86,12.15,15.8,6.08-6.08-12.15,13.37-6.08Z"/>
      <polygon class="cls-2" points="155.72 144.26 176.38 161.27 167.87 185.58 150.85 186.8 139.91 180.72 149.64 201.38 159.36 208.68 155.72 202.6 181.24 207.46 209.19 166.14 204.33 186.8 223.78 209.89 210.41 185.58 217.7 151.55 184.89 123.6 211.63 153.98 180.02 202.6 153.28 198.95 147.21 189.23 152.07 191.66 170.3 190.45 182.45 158.84 155.72 144.26"/>
    </g>
  </g>
</svg>