<?xml version="1.0" encoding="UTF-8"?>
<svg id="Layer_2" data-name="Layer 2" xmlns="http://www.w3.org/2000/svg" viewBox="0 0 35.18 34.77">
  <defs>
    <style>
      .cls-1 {
        fill: #ece60e;
        opacity: .61;
        stroke-width: 0px;
      }
    </style>
  </defs>
  <g id="Layer_1-2" data-name="Layer 1">
    <path class="cls-1" d="m20.35,34.77c0-2.14,0-4.18,0-6.22,0-1.59.04-3.17-.01-4.76-.03-.82.17-1.2,1.08-1.17.99.04,2.26.25,2.89-.25.57-.46.45-1.79.61-2.73.11-.64.19-1.29.31-2.14-1.31,0-2.53-.04-3.75.01-.84.04-1.23-.2-1.14-1.1.06-.69-.01-1.39.02-2.09.08-1.76.87-2.61,2.64-2.77.76-.07,1.53-.01,2.46-.01,0-1.39.03-2.65-.03-3.91,0-.2-.38-.53-.59-.54-1.58-.09-3.18-.32-4.73-.13-3.36.42-5.2,2.84-5.3,6.66-.03,1.23,0,2.46,0,3.87-1.22,0-2.33.04-3.43-.01-.77-.04-1.02.26-.99,1.01.05,1.04.06,2.09,0,3.13-.05.85.32,1.07,1.09,1.03,1.07-.05,2.14-.01,3.27-.01v12.06C7.66,34.87.22,26.38,0,17.98-.24,8.39,7.37.31,16.93,0c9.74-.3,17.94,7.25,18.24,16.76.33,10.33-7.71,17.28-14.82,18Z"/>
  </g>
</svg>