<?xml version="1.0" encoding="UTF-8"?>
<svg id="Layer_2" data-name="Layer 2" xmlns="http://www.w3.org/2000/svg" viewBox="0 0 35.06 35">
  <defs>
    <style>
      .cls-1 {
        fill: #ece60e;
        opacity: .61;
        stroke-width: 0px;
      }
    </style>
  </defs>
  <g id="Layer_1-2" data-name="Layer 1">
    <path class="cls-1" d="m17.51,35C7.82,35,0,27.17,0,17.48,0,7.79,7.82,0,17.55,0c9.69,0,17.51,7.82,17.51,17.52,0,9.67-7.84,17.48-17.55,17.48ZM7.27,17.39c0,1.42-.02,2.85,0,4.27.05,3.27,2.51,5.93,5.79,6.05,2.96.11,5.93.11,8.89,0,3.26-.11,5.78-2.75,5.84-6.01.05-2.81.05-5.62,0-8.43-.06-3.33-2.6-5.97-5.91-6.07-2.89-.09-5.78-.08-8.66,0-3.39.1-5.9,2.75-5.95,6.14-.02,1.35,0,2.7,0,4.04Z"/>
    <path class="cls-1" d="m17.66,25.77c-1.35,0-2.71.03-4.06,0-2.31-.06-4.09-1.69-4.16-3.99-.09-2.86-.09-5.72,0-8.58.07-2.26,1.76-3.93,4.04-4,2.86-.08,5.72-.09,8.58,0,2.3.08,3.96,1.85,4,4.15.04,2.74.05,5.49,0,8.24-.04,2.4-1.81,4.12-4.23,4.18-1.39.03-2.78,0-4.18,0Zm5.21-8.2c.03-2.86-2.14-5.13-4.96-5.17-2.85-.04-5.12,2.16-5.15,4.98-.03,2.85,2.14,5.12,4.96,5.18,2.83.05,5.12-2.16,5.15-4.99Zm2.05-5.51c-.79-.56-1.2-1.07-1.69-1.16-.74-.13-1.25.41-1.25,1.17,0,.76.52,1.29,1.26,1.16.49-.09.9-.6,1.68-1.17Z"/>
  </g>
</svg>