<?xml version="1.0" encoding="UTF-8"?>
<svg id="Layer_2" data-name="Layer 2" xmlns="http://www.w3.org/2000/svg" viewBox="0 0 378.73 291.03">
  <defs>
    <style>
      .cls-1 {
        fill: #ede600;
        stroke-width: 0px;
      }
    </style>
  </defs>
  <g id="Layer_1-2" data-name="Layer 1">
    <g>
      <path class="cls-1" d="m81.64,179.27l-34.02,9.31s4.54,9.31,4.54,11.64l-6.8-2.33-11.34-23.28-20.41-13.97,54.43-51.22,15.87-4.66-11.34-4.66,9.07-32.59L267.61,11.64l-4.54,34.92-20.41,25.61,29.48-23.28,83.91,39.58-36.29,18.63-97.52-4.66,99.79,13.97,56.7-30.27-106.59-46.56,6.8-39.58L74.84,62.86l-9.07,37.25L0,162.97l29.48,16.3,9.07,23.28,29.48,11.64-11.34-23.28,24.95-11.64Z"/>
      <polygon class="cls-1" points="106.59 165.3 145.14 197.9 129.27 244.46 97.52 246.79 77.11 235.15 95.25 274.73 113.39 288.7 106.59 277.06 154.21 286.37 206.37 207.21 197.3 246.79 233.59 291.03 208.64 244.46 222.25 179.27 161.02 125.72 210.91 183.93 151.95 277.06 102.05 270.07 90.71 251.45 99.79 256.1 133.8 253.78 156.48 193.24 106.59 165.3"/>
    </g>
  </g>
</svg>