<?xml version="1.0" encoding="UTF-8"?>
<svg id="Layer_2" data-name="Layer 2" xmlns="http://www.w3.org/2000/svg" viewBox="0 0 35.06 35">
  <defs>
    <style>
      .cls-1 {
        fill: #ece60e;
        opacity: .61;
        stroke-width: 0px;
      }
    </style>
  </defs>
  <g id="Layer_1-2" data-name="Layer 1">
    <path class="cls-1" d="m17.47,0c9.67-.03,17.55,7.73,17.58,17.31.03,9.79-7.76,17.68-17.46,17.69C7.83,35.01,0,27.19,0,17.43,0,7.83,7.82.03,17.47,0Zm-9.21,23.53c.39.29.5.39.63.46,5.62,3,15.29,1.26,16.39-8.22.16-1.39.36-2.63,1.56-3.51.15-.11.2-.35.35-.62-.49.05-.83.08-1.23.12.32-.58.58-1.07.84-1.54-.15-.09-.19-.13-.22-.13-.11.01-.24.02-.33.07-1,.51-1.84.59-2.96-.08-2.41-1.44-5.54.4-5.78,3.22-.03.33-.06.65-.1,1.05-3.18-.37-5.73-1.72-7.95-4.06-.98,1.92-.51,3.48.63,5.07-.46-.03-.78-.06-1.14-.08-.05,1.75.98,2.75,2.24,3.67-.33.11-.57.19-.84.28.46,1.65,1.81,2.22,3.32,2.84-1.63,1.16-3.34,1.4-5.41,1.48Z"/>
  </g>
</svg>