<?xml version="1.0" encoding="UTF-8"?>
<svg id="Layer_2" data-name="Layer 2" xmlns="http://www.w3.org/2000/svg" viewBox="0 0 34.9 34.88">
  <defs>
    <style>
      .cls-1 {
        fill: #ece60e;
        opacity: .61;
        stroke-width: 0px;
      }
    </style>
  </defs>
  <g id="Layer_1-2" data-name="Layer 1">
    <path class="cls-1" d="m0,17.46C0,7.81,7.82-.03,17.43,0c9.64.03,17.45,7.83,17.47,17.46.02,9.6-7.84,17.43-17.47,17.42C7.73,34.86,0,27.14,0,17.46Zm17.41,6.57c1.77,0,3.54.03,5.32,0,2.37-.05,4.05-1.75,4.1-4.12.03-1.54.01-3.08,0-4.62-.02-2.55-1.55-4.33-4.07-4.4-3.58-.1-7.17-.11-10.75,0-2.42.08-3.95,1.83-3.98,4.24-.02,1.54-.02,3.08,0,4.62.03,2.57,1.72,4.25,4.29,4.28,1.69.02,3.39,0,5.08,0Z"/>
    <path class="cls-1" d="m20.91,17.64c-1.81.9-3.31,1.65-4.82,2.37-.5.24-.94.14-.95-.53-.02-1.3-.02-2.61,0-3.91,0-.65.42-.82.93-.55,1.52.79,3.02,1.62,4.85,2.62Z"/>
  </g>
</svg>